<?xml version="1.0" encoding="utf-8"?>
<!-- Generator: Adobe Illustrator 24.0.2, SVG Export Plug-In . SVG Version: 6.00 Build 0)  -->
<svg version="1.1" id="Layer_1" xmlns="http://www.w3.org/2000/svg" xmlns:xlink="http://www.w3.org/1999/xlink" x="0px" y="0px"
	 viewBox="0 0 48 48" style="enable-background:new 0 0 48 48;" xml:space="preserve">
<style type="text/css">
	.st0{fill:none;}
	.st1{enable-background:new    ;}
</style>
<g>
	<path class="st0" d="M1.5,7.3h49v41.8h-49V7.3z"/>
</g>
<g class="st1">
	<path d="M27.3,4.1c0.3,0.2,2.4,2.1,1.4,2.5c-1.5,0.7-10.9,1.7-11.9,1.8c-0.2,0.1-0.3,0.1-0.4,0.1c-0.5,1.7-2.5,6.9-4.7,12.6
		c3.2-0.3,6-0.5,6.2-0.1c0.3,0.5,1,2.1,0.3,2.5c-0.3,0.3-4.3,0.9-8,1.4c-2.8,7.4-5.1,14.4-3.5,14.4c1.9,0.1,11.4-4.3,12.3-3.5
		c0.5,0.5,2.9,2.6,2.1,3.2c-2.3,1.8-15.8,6.5-16.8,5.2c-1.9-2.3-2.5-4.9-2.7-6.9c-0.2-1.5,1.4-6.3,3.2-11.8
		c-0.8,0.1-1.3,0.1-1.4,0.1c-1.1-0.4-1.9-3.2-1.2-3.3c0.6-0.1,2.1-0.3,4-0.5c1.9-5.3,4-10.5,5.2-12.9c-1,0.1-2,0.1-2.9,0.2
		C6.6,9,5.9,8,5.9,7.3c0.1-0.8,0-2.6,0.4-2.7C9.1,3.6,26.5,3.5,27.3,4.1z"/>
	<path d="M43,5.1c-3.3,2-12.2,9.7-12.3,13.2c-0.1,2.2,4.9,4,8.5,8.6c1.1,1.7,1.3,3.4,0.5,5.6c-1.2,3.3-6,10.4-10.3,11.5
		c-2.5,0.6-7.3-1.9-7.1-4.6c0.1-3,1.9-9,3.2-9.5c0.8-0.4,5,0.2,3.8,2.2c-0.8,1.8-1.5,3.5-2.1,5.4c-1.8,5.6,0.3,3.4,2.7,0.8
		c1.6-1.8,6.2-6.6,5.3-9.1c-1.3-3.4-10.8-6.4-9.7-11.9c1-5.1,9.9-12.4,13.8-15.2c2.4-1.7,7.9,0.6,7.8,4c-0.3,2.6-5.7,13.4-7,13.8
		c-0.8,0.3-4-1.5-3.6-2.3C37.7,15.3,43.3,6.7,43,5.1z"/>
</g>
</svg>
