<?xml version="1.0" encoding="utf-8"?>
<!-- Generator: Adobe Illustrator 24.0.2, SVG Export Plug-In . SVG Version: 6.00 Build 0)  -->
<svg version="1.1" id="Layer_1" xmlns="http://www.w3.org/2000/svg" xmlns:xlink="http://www.w3.org/1999/xlink" x="0px" y="0px"
	 viewBox="0 0 94 22.3" enable-background="new 0 0 94 22.3" xml:space="preserve">
<g enable-background="new    ">
	<path fill="#FAFAFA" d="M9.2,1.4C9.3,1.4,10,2.1,9.7,2.3C9.2,2.5,5.9,2.8,5.6,2.9c-0.1,0-0.1,0-0.1,0C5.3,3.5,4.6,5.3,3.8,7.2
		c1.1-0.1,2.1-0.2,2.2,0C6,7.4,6.3,7.9,6,8.1C5.9,8.2,4.6,8.4,3.3,8.6c-1,2.6-1.8,5-1.2,5c0.7,0,4-1.5,4.2-1.2
		c0.2,0.2,1,0.9,0.7,1.1c-0.8,0.6-5.5,2.3-5.8,1.8c-0.7-0.8-0.9-1.7-0.9-2.4c-0.1-0.5,0.5-2.2,1.1-4.1c-0.3,0-0.5,0-0.5,0
		C0.5,8.7,0.3,7.7,0.5,7.7c0.2,0,0.7-0.1,1.4-0.2C2.6,5.6,3.3,3.9,3.7,3C3.4,3,3,3,2.7,3c-0.6,0-0.9-0.3-0.9-0.6
		c0-0.3,0-0.9,0.1-0.9C2.9,1.2,9,1.2,9.2,1.4z"/>
	<path fill="#FAFAFA" d="M11.9,7.1c0.2,0,1,0.7,1,0.9c0,0-2.2,0.6-2.9,1.2c1.1,0.1,1.7,0.4,2.1,1.2c1-0.3,1.9-0.8,2.4-1
		c0.4-0.2,0.6-0.2,0.7,0c0.2,0.3,0,0.4-0.1,0.6c-0.4,0.4-1.2,0.9-2.7,1.4c0.1,1.5-1.2,3.5-3.3,3.4c-0.7,0-1.6-1.1-1.2-1.8
		c0.3-0.5,0.9-1.3,2.8-2.1c0-0.3-1.1-0.5-1.6-0.8C8.7,10,8.6,8.7,8.9,8.4C9.5,7.9,11.2,7.2,11.9,7.1z M11,12"/>
	<path fill="#FAFAFA" d="M14.9,12.9c0.7-0.6,2.2-2.5,2.7-3.3c0.2-0.4,0.5-0.5,0.8-0.3c0.4,0.2,0.2,0.5,0.1,0.8
		c-0.5,1-2.1,2.9-2.9,3.7c-0.9,0.9-2.3,0-2.4-0.4c0-0.2,0-0.6,0.1-1c0.3-0.9,1.4-4.1,2.2-6.5C14.8,6,14,6,13.3,6.1
		c-0.4,0-0.9,0.1-1.2-0.1c-0.2-0.1-0.4-0.6-0.2-1c0.5-0.2,2.2-0.2,4.1-0.2c0.3-0.8,0.5-1.5,0.7-1.9c0.2-0.5,0.2-0.4,0.8-0.2
		C17.9,2.8,18,2.9,18,3.1c-0.1,0.4-0.3,1-0.6,1.7c1.5,0.1,2.9,0.1,3.5,0.3c0.7,0.2,1,0.5,0,0.6c-1.3,0.1-2.6,0.2-3.9,0.2
		c-0.9,2.5-2,5.8-2.4,6.9C14.4,13.4,14.7,13.2,14.9,12.9z"/>
	<path fill="#FAFAFA" d="M21.6,9.1c-0.3,0.8-1.8,2.2-2.7,2.3c-0.4,0-0.7-0.1-0.9-0.4c-0.3,0.4-0.3,0.5-0.4,0.9
		c-0.2,0.5-0.1,1,0.3,1.1c1.1,0.3,3.6-2.4,4.5-3.3c0.3-0.3,0.7-0.7,1-0.4c0.3,0.3-0.2,0.7-0.3,0.9c-1.1,1.2-3.7,4.4-5.6,4
		c-0.9-0.3-1.6-1.3-1.4-2.4c0.3-1.3,2.3-4,3.7-4.4C20.6,7.2,21.9,8.2,21.6,9.1z M20.6,8.5c-0.3-0.3-1.9,1.6-2.1,1.9
		C19.7,10.1,20.9,8.7,20.6,8.5z"/>
	<path fill="#FAFAFA" d="M27.4,8.7c0,0.4-0.2,0.9-0.5,1.7c1.2-0.7,1.7-0.9,2.2-1c0.3-0.1,0.6,0.7,0.5,0.8c-1.4,1-2,1.3-3.5,2
		c-0.6,1-2.1,3.5-3.9,2c-0.3,0-1-0.5-1-0.7c0-0.1,0-0.3,0.1-0.5c0,0,2.9-8.5,3.5-10.2C25,2.3,25,2.4,25.6,2.6
		c0.5,0.1,0.6,0.3,0.5,0.6c-0.2,0.7-1,2.9-1.6,4.7c0.4-0.3,0.9-0.6,1.2-0.6C26.8,7.3,27.5,8,27.4,8.7z M26,8.4
		c-0.4-0.1-1,0.5-1.7,1.3c-0.8,1.1-1.2,1.8-1.6,3.1c0.4-0.6,1-1,2.4-1.6C25.5,10.7,26.6,8.7,26,8.4z M23.2,13.8
		c0.1,0.2,0.7,0,1.3-1.1C23.3,13.1,23.1,13.7,23.2,13.8z"/>
	<path fill="#FAFAFA" d="M28.9,12.2c-0.1,0.3-0.1,0.6-0.1,0.8c0.3-0.2,1.5-1.7,3.5-3.8C32.3,9.1,32.4,9,32.5,9
		c0.4-0.3,1.3,0.3,1.2,0.6c0,0.1,0,0.1-0.1,0.2c-0.3,1.1-0.8,2.5-1,3.1c-0.2,0.6,0.1,0.4,0.3,0.1c0.7-0.6,2.2-2.5,2.7-3.3
		c0.2-0.3,0.3-0.5,0.6-0.3c0.4,0.2,0.3,0.3,0.2,0.6c-0.5,1.2-2.1,3.1-2.9,4c-0.9,0.9-2.2,0-2.3-0.4c-0.1-0.2,0.1-0.8,0.3-1.5
		c-1.3,1.5-2.1,2.2-2.7,2.3c-1,0.1-1.5-1.6-1.3-2.4c0.3-1.3,2.8-4.4,3.5-4.6c0.2,0,1.4,0.2,1.1,0.6C31.3,9,29.4,10.8,28.9,12.2z"/>
	<path fill="#FAFAFA" d="M40.8,8.7c-0.2,0.8-1.2,3.2-1.4,4.1c-0.2,0.6,0.1,0.4,0.3,0.2c0.7-0.6,2-2.4,2.5-3.2
		c0.2-0.3,0.4-0.4,0.7-0.3c0.3,0.1,0.3,0.3,0.2,0.6c-0.4,1-1.9,2.9-2.8,3.8c-0.9,0.9-2.2,0-2.4-0.4c-0.2-0.6,1.2-4,1.1-3.9
		c-0.5,0.3-3,3-3.8,4.6l0,0.1c-0.2,0.3-1.1-0.4-1.1-0.6c0-0.1,0-0.3,0.1-0.5c0,0,1.2-3.6,1.8-5.3c0.2-0.5,0.2-0.4,0.8-0.3
		c0.5,0.1,0.6,0.3,0.5,0.6c-0.2,0.7-0.5,1.4-0.6,1.9c0.6-0.8,1.5-1.7,2.2-2.4C39.5,7.1,40.9,8,40.8,8.7z"/>
	<path fill="#FAFAFA" d="M53.5,1.7c-1.1,0.7-4.2,3.3-4.3,4.6c0,0.8,1.7,1.4,2.9,3c0.4,0.6,0.5,1.2,0.2,1.9c-0.4,1.1-2.1,3.6-3.6,4
		c-0.9,0.2-2.5-0.7-2.5-1.6c0-1,0.6-3.1,1.1-3.3c0.3-0.1,1.7,0.1,1.3,0.8c-0.3,0.6-0.5,1.2-0.7,1.9c-0.6,1.9,0.1,1.2,0.9,0.3
		c0.6-0.6,2.1-2.3,1.8-3.2C50.3,8.9,47,7.9,47.4,6c0.4-1.8,3.4-4.3,4.8-5.3c0.8-0.6,2.7,0.2,2.7,1.4c-0.1,0.9-2,4.6-2.4,4.8
		c-0.3,0.1-1.4-0.5-1.2-0.8C51.7,5.3,53.6,2.3,53.5,1.7z"/>
	<path fill="#FAFAFA" d="M54.7,12.2c-0.1,0.3-0.1,0.6-0.1,0.8c0.3-0.2,1.5-1.7,3.5-3.8C58.1,9.1,58.2,9,58.3,9
		c0.4-0.3,1.3,0.3,1.2,0.6c0,0.1,0,0.1-0.1,0.2c-0.3,1.1-0.8,2.5-1,3.1c-0.2,0.6,0.1,0.4,0.3,0.1c0.7-0.6,2.2-2.5,2.7-3.3
		c0.2-0.3,0.3-0.5,0.6-0.3c0.4,0.2,0.3,0.3,0.2,0.6c-0.5,1.2-2.1,3.1-2.9,4c-0.9,0.9-2.2,0-2.3-0.4c-0.1-0.2,0.1-0.8,0.3-1.5
		c-1.3,1.5-2.1,2.2-2.7,2.3c-1,0.1-1.5-1.6-1.3-2.4c0.3-1.3,2.8-4.4,3.5-4.6c0.2,0,1.4,0.2,1.1,0.6C57.1,9,55.2,10.8,54.7,12.2z"/>
	<path fill="#FAFAFA" d="M66.6,8.7c-0.2,0.8-1.2,3.2-1.4,4.1c-0.2,0.6,0.1,0.4,0.3,0.2c0.7-0.6,2-2.4,2.5-3.2
		c0.2-0.3,0.4-0.4,0.7-0.3c0.3,0.1,0.3,0.3,0.2,0.6c-0.4,1-1.9,2.9-2.8,3.8c-0.9,0.9-2.2,0-2.4-0.4c-0.2-0.6,1.2-4,1.1-3.9
		c-0.5,0.3-3,3-3.8,4.6l0,0.1c-0.2,0.3-1.1-0.4-1.1-0.6c0-0.1,0-0.3,0.1-0.5c0,0,1.2-3.6,1.8-5.3c0.2-0.5,0.2-0.4,0.8-0.3
		c0.5,0.1,0.6,0.3,0.5,0.6c-0.2,0.7-0.5,1.4-0.6,1.9c0.6-0.8,1.5-1.7,2.2-2.4C65.4,7.1,66.7,8,66.6,8.7z"/>
	<path fill="#FAFAFA" d="M68.5,12.9c0.7-0.6,2.2-2.5,2.7-3.3c0.2-0.4,0.5-0.5,0.8-0.3c0.4,0.2,0.2,0.5,0.1,0.8
		c-0.5,1-2.1,2.9-2.9,3.7c-0.9,0.9-2.3,0-2.4-0.4c0-0.2,0-0.6,0.1-1c0.3-0.9,1.4-4.1,2.2-6.5c-0.8,0-1.5,0.1-2.3,0.1
		c-0.4,0-0.9,0.1-1.2-0.1c-0.2-0.1-0.4-0.6-0.2-1c0.5-0.2,2.2-0.2,4.1-0.2c0.3-0.8,0.5-1.5,0.7-1.9c0.2-0.5,0.2-0.4,0.8-0.2
		c0.5,0.2,0.6,0.2,0.6,0.4c-0.1,0.4-0.3,1-0.6,1.7c1.5,0.1,2.9,0.1,3.5,0.3c0.7,0.2,1,0.5,0,0.6c-1.3,0.1-2.6,0.2-3.9,0.2
		c-0.9,2.5-2,5.8-2.4,6.9C67.9,13.4,68.2,13.2,68.5,12.9z"/>
	<path fill="#FAFAFA" d="M70,12.6c0.3-1,0.7-2,1-2.9C71.3,9,71.6,8,71.9,7.4c0-0.1,0.1-0.1,0.2-0.1c0.2,0,0.8,0.2,0.9,0.3
		c0.1,0.1,0.1,0.1,0.1,0.3c-0.2,0.7-0.5,1.4-0.8,2c-0.3,0.9-0.7,1.9-1,2.9c0,0.1-0.2,0.6,0.1,0.5c0.2-0.1,0.5-0.4,0.6-0.6
		c0.4-0.5,0.8-1,1.2-1.5c0.3-0.5,0.7-0.9,1-1.4c0.1-0.1,0.2-0.3,0.4-0.4c0.1,0,0.2,0,0.3,0.1C75,9.4,75,9.5,75,9.6
		c0,0.2-0.1,0.3-0.1,0.5c-0.2,0.5-0.6,1.2-0.9,1.6c-0.3,0.5-0.7,1-1.1,1.5c-0.3,0.3-0.6,0.8-1,1c-0.6,0.3-1.6-0.1-1.9-0.6
		C69.8,13.3,69.9,12.8,70,12.6z M74.1,4.9c0.1,0.1,0,0.2,0,0.3c-0.1,0.2-0.2,0.4-0.3,0.6c-0.1,0.2-0.2,0.4-0.5,0.4
		C73,6.4,72.6,6.2,72.4,6c-0.1-0.1,0-0.3,0-0.4c0-0.2,0.1-0.5,0.2-0.7c0.1-0.2,0.1-0.4,0.3-0.4C73.3,4.4,73.9,4.6,74.1,4.9z"/>
	<path fill="#FAFAFA" d="M74.3,12.2c-0.1,0.3-0.1,0.6-0.1,0.8c0.3-0.2,1.5-1.7,3.5-3.8C77.7,9.1,77.8,9,77.9,9
		c0.4-0.3,1.3,0.3,1.2,0.6c0,0.1,0,0.1-0.1,0.2c-0.3,1.1-0.8,2.5-1,3.1c-0.2,0.6,0.1,0.4,0.3,0.1c0.7-0.6,2.2-2.5,2.7-3.3
		c0.2-0.3,0.3-0.5,0.6-0.3c0.4,0.2,0.3,0.3,0.2,0.6c-0.5,1.2-2.1,3.1-2.9,4c-0.9,0.9-2.2,0-2.3-0.4c-0.1-0.2,0.1-0.8,0.3-1.5
		c-1.3,1.5-2.1,2.2-2.7,2.3c-1,0.1-1.5-1.6-1.3-2.4c0.3-1.3,2.8-4.4,3.5-4.6c0.2,0,1.4,0.2,1.1,0.6C76.7,9,74.9,10.8,74.3,12.2z"/>
	<path fill="#FAFAFA" d="M84.4,8.3c-1,1.1-3.7,3.4-3.8,4.7c1-0.5,3-3,4-3.9C85,8.8,86,9.4,85.8,9.8c-0.3,0.8-0.8,1.9-1,2.7
		c1.3-1,3.2-3.1,3.3-3.3c0.2-0.2,0.9,0.4,0.8,0.6c-0.3,0.4-3.3,3.5-4.6,4.5c-0.5,1.6-1.5,8.3-3.9,7.5c-2.7-1,0.6-6.4,2.7-8
		c0.1-0.2,0.2-0.9,0.5-1.7c-1.3,1.5-2.3,2.2-2.9,2.3c-1,0.1-1.4-1.6-1.2-2.4c0.4-1.3,3.4-4.3,3.9-4.4c0.2,0,1.2,0.4,1.1,0.6
		C84.5,8.2,84.5,8.2,84.4,8.3z M80.7,20.2c0.5,0.4,1.6-3.8,1.7-4.2C82.1,16.4,80,19.7,80.7,20.2z"/>
	<path fill="#FAFAFA" d="M92.9,9.5c0.2-0.2,0.4-0.4,0.6-0.1c0.3,0.2,0.3,0.4,0,0.8c-1,1.2-2.3,1.9-3.2,2c-0.4,1-1,1.9-1.6,2.2
		c-0.4,0.1-1.9,0-2.3-0.5c-0.3-0.5,0.5-4.2,0.9-4.5c0.1,0,0.1-0.1,0.4,0c0.5-1.2,0.8-1.6,1.4-1.7c0.5-0.1,1.9,0.1,2.1,0.6
		c0.1,0.1,0.1,0.3,0.1,0.6C91.4,9,91.2,10,90.8,11C91.7,10.6,92.4,9.9,92.9,9.5z M88.2,11.4c-0.3,1-0.5,2-0.1,2.1
		c0.3,0.1,0.7-0.6,1.1-1.4C88.8,11.9,88.4,11.6,88.2,11.4z M89.6,11.1c0.3-1,0.6-1.9,0.6-2.3c0-0.2,0-0.3-0.3-0.4
		c-0.3-0.1-0.4,0-0.5,0.2c-0.1,0.2-0.4,0.6-0.6,1.2C88.7,10.3,89.1,10.9,89.6,11.1z"/>
</g>
</svg>
