<svg xmlns="http://www.w3.org/2000/svg" xml:space="preserve" viewBox="0 0 15 15"><path fill="#FAFAFA" fill-rule="evenodd" d="M5.3 1.8c-.4-.1-.7-.1-.9 0-.2.2-.4.4-.5.8-.1.4-.2.9-.1 1.6v.3c.6-.1 1.1-.2 1.7-.3.4-.6.8-1.1 1.3-1.5l-.1-.1c-.5-.4-1-.6-1.4-.8zm2.2.2c-.1 0-.1-.1-.2-.1-.6-.5-1.1-.9-1.7-1C5 .7 4.4.7 3.9 1c-.5.3-.8.8-1 1.3-.2.6-.2 1.2-.1 2 0 .2 0 .3.1.5-.2.1-.4.1-.5.2-.7.3-1.3.6-1.7 1.1-.4.4-.7.9-.7 1.5s.3 1.1.7 1.5c.4.4 1 .8 1.7 1.1.2.1.3.1.5.2 0 .2 0 .3-.1.5-.1.7 0 1.4.1 2 .2.6.5 1.1 1 1.3.5.3 1.1.3 1.7.1.6-.2 1.2-.5 1.7-1l.2-.1c.1.1.1.1.2.1.6.5 1.2.8 1.7 1 .6.2 1.2.2 1.7-.1.5-.3.8-.8 1-1.3.2-.6.2-1.2.1-2 0-.2 0-.3-.1-.5.2-.1.3-.1.5-.2.7-.3 1.2-.6 1.7-1.1.4-.4.7-.9.7-1.5s-.3-1.1-.7-1.5c-.4-.4-1-.8-1.7-1.1-.2-.1-.3-.1-.5-.2 0-.2 0-.4.1-.5.1-.7 0-1.4-.1-2-.2-.6-.5-1.1-1-1.3C10.6.7 10 .7 9.4.9c-.6.1-1.1.5-1.7.9l-.2.2zm0 1.3c-.2.3-.4.5-.7.8h1.3c-.1-.3-.4-.5-.6-.8zm2 .9c-.4-.6-.8-1.1-1.3-1.5l.1-.1c.5-.4 1-.7 1.4-.8.4-.1.7-.1.9 0 .2.2.4.4.5.8.1.4.2.9.1 1.6v.3c-.6-.1-1.1-.2-1.7-.3zm-.6.9H6.1c-.5.8-1 1.6-1.3 2.4.3.9.7 1.7 1.2 2.5 1 .1 1.9.1 2.9 0 .5-.8 1-1.6 1.3-2.4-.3-.9-.7-1.7-1.3-2.5zm1.9 1.2c-.2-.3-.3-.6-.5-1 .3.1.5.1.8.2-.2.3-.2.5-.3.8zm0 2.6c-.2.3-.3.6-.5 1 .3-.1.5-.1.8-.2-.2-.3-.2-.6-.3-.8zm1.2.5-.6-1.8.6-1.8c.1 0 .2.1.3.1.6.3 1 .5 1.3.8.3.4.4.6.4.9s-.1.5-.4.8c-.3.3-.7.6-1.3.8-.1.1-.2.1-.3.2zm-.8 1.3c-.5.1-1.1.2-1.7.3-.4.6-.8 1.1-1.3 1.5l.1.1c.5.4 1 .7 1.4.8.4.1.7.1.9 0 .2-.1.4-.3.5-.7.1-.4.2-.9.1-1.6v-.4zm-3.7 1.1c.2-.2.4-.5.7-.8H6.9c.2.3.4.6.6.8zm-2.7-2c-.2-.3-.4-.6-.5-1-.2.3-.2.6-.3.9.2 0 .5.1.8.1zm-1 .9c.5.1 1.1.2 1.7.3.4.6.8 1.1 1.3 1.5l-.1.1c-.5.4-1 .7-1.4.8-.4.1-.7.1-.9 0-.2-.2-.4-.4-.5-.8-.1-.4-.2-.9-.1-1.6v-.3zM3 9.4c.1-.6.3-1.2.6-1.8L3 5.8c-.1 0-.2.1-.3.1-.6.3-1 .5-1.3.8-.3.4-.4.6-.4.9s.1.5.4.8c.3.3.8.6 1.3.8.1.1.2.1.3.2zm1-3.9c.1.3.1.5.2.8.2-.3.3-.6.5-1-.2.1-.5.1-.7.2zm2 2.1c0-.8.7-1.5 1.5-1.5S9 6.8 9 7.6s-.7 1.5-1.5 1.5S6 8.4 6 7.6zm1.5-.5c-.3 0-.5.2-.5.5s.2.5.5.5.5-.2.5-.5-.2-.5-.5-.5z" clip-rule="evenodd"/></svg>