<svg xmlns="http://www.w3.org/2000/svg" xml:space="preserve" viewBox="0 0 207.6 207.6"><circle cx="103.8" cy="103.8" r="45.9" fill="#FAFAFA"/><path fill="#FAFAFA" d="M103.8 157.2c-29.4 0-53.4-23.9-53.4-53.4s23.9-53.4 53.4-53.4 53.4 23.9 53.4 53.4-24 53.4-53.4 53.4zm0-91.8c-21.2 0-38.4 17.2-38.4 38.4s17.2 38.4 38.4 38.4 38.4-17.2 38.4-38.4-17.2-38.4-38.4-38.4zm0-26c-4.1 0-7.5-3.4-7.5-7.5V7.5c0-4.1 3.4-7.5 7.5-7.5s7.5 3.4 7.5 7.5v24.4c0 4.1-3.3 7.5-7.5 7.5zm0 168.2c-4.1 0-7.5-3.4-7.5-7.5v-24.4c0-4.1 3.4-7.5 7.5-7.5s7.5 3.4 7.5 7.5v24.4c0 4.2-3.3 7.5-7.5 7.5zm96.3-96.3h-24.4c-4.1 0-7.5-3.4-7.5-7.5s3.4-7.5 7.5-7.5h24.4c4.1 0 7.5 3.4 7.5 7.5s-3.3 7.5-7.5 7.5zm-168.2 0H7.5c-4.1 0-7.5-3.4-7.5-7.5s3.4-7.5 7.5-7.5h24.4c4.1 0 7.5 3.4 7.5 7.5s-3.4 7.5-7.5 7.5zm122.8-50.8c-2 0-3.9-.8-5.3-2.2-2.9-2.9-2.9-7.7 0-10.6l17.2-17.2c2.9-2.9 7.7-2.9 10.6 0 2.9 2.9 2.9 7.7 0 10.6L160 58.3c-1.4 1.4-3.3 2.2-5.3 2.2zm-119 118.9c-2 0-3.9-.8-5.3-2.2-2.9-2.9-2.9-7.7 0-10.6l17.2-17.2c2.9-2.9 7.7-2.9 10.6 0 2.9 2.9 2.9 7.7 0 10.6L41 177.2c-1.4 1.4-3.3 2.2-5.3 2.2zm136.2 0c-2 0-3.9-.8-5.3-2.2L149.4 160c-2.9-2.9-2.9-7.7 0-10.6 2.9-2.9 7.7-2.9 10.6 0l17.2 17.2c2.9 2.9 2.9 7.7 0 10.6-1.4 1.4-3.3 2.2-5.3 2.2zM53 60.5c-2 0-3.9-.8-5.3-2.2L30.4 41c-2.9-2.9-2.9-7.7 0-10.6 2.9-2.9 7.7-2.9 10.6 0l17.2 17.2c2.9 2.9 2.9 7.7 0 10.6-1.3 1.5-3.3 2.3-5.2 2.3z"/></svg>