<svg xmlns="http://www.w3.org/2000/svg" xml:space="preserve" viewBox="0 0 97.8 97.8"><path fill="#FAFAFA" d="M48.9 0C21.9 0 0 21.9 0 48.9s21.9 48.9 48.9 48.9 48.9-21.9 48.9-48.9S75.9 0 48.9 0zm29.5 35.8v1.7C78.4 58.4 62.5 80 35.9 80c-8.1 0-16.1-2.3-22.9-6.7-.1-.1-.2-.3-.1-.4.1-.2.2-.3.4-.2 1.1.1 2.3.2 3.5.2 6.3 0 12.3-2 17.4-5.7-6.1-.5-11.3-4.6-13.2-10.5 0-.1 0-.3.1-.4.1-.1.2-.1.3-.1 1.7.3 3.4.3 5 .1-6.3-1.9-10.7-7.8-10.7-14.5v-.2c0-.2.2-.4.4-.4h.2c1.6.9 3.4 1.5 5.3 1.7C18 40 15.9 35.7 15.9 31c0-2.7.7-5.3 2.1-7.6.1-.1.2-.2.3-.2.1 0 .2 0 .3.1 7.4 9 18.2 14.6 29.8 15.3-.2-1-.3-2-.3-3 0-8.4 6.8-15.2 15.2-15.2 4.1 0 8.1 1.7 10.9 4.6 3.2-.7 6.3-1.8 9.1-3.5.1-.1.3-.1.4 0 .1.1.2.3.1.4-1 3-2.8 5.6-5.3 7.5 2.4-.4 4.6-1.1 6.8-2.1.2-.1.4 0 .5.2.1.1 0 .2 0 .4-2 3.3-4.5 5.8-7.4 7.9z"/></svg>